PathFileType	4	(X/Y/Z)	Run_500 03
DataRate	CameraRate	NumFrames	NumMarkers	Units	OrigDataRate	OrigDataStartFrame	OrigNumFrames
100	100	6	42	mm	100	398	128
Frame#	Time	RASI			LPSI			RPSI			RTH1			RTH2			RTH3			LTH1			LTH2			LTH3			RTB1			RTB2			RTB3			LTB1			LTB2			LTB3			RCAL			RTOE			RMT5			LCAL			LTOE			LMT5			LACR			RACR			CLAV			C7			RUA1			RUA2			RUA3			RLEL			RMEL			LUA1			LUA2			LUA3			LLEL			LMEL			RFAsuperior			RFAradius			RFAulna			LFAsuperior			LFAradius			LFAulna			LASI		
		X1	Y1	Z1	X2	Y2	Z2	X3	Y3	Z3	X4	Y4	Z4	X5	Y5	Z5	X6	Y6	Z6	X7	Y7	Z7	X8	Y8	Z8	X9	Y9	Z9	X10	Y10	Z10	X11	Y11	Z11	X12	Y12	Z12	X13	Y13	Z13	X14	Y14	Z14	X15	Y15	Z15	X16	Y16	Z16	X17	Y17	Z17	X18	Y18	Z18	X19	Y19	Z19	X20	Y20	Z20	X21	Y21	Z21	X22	Y22	Z22	X23	Y23	Z23	X24	Y24	Z24	X25	Y25	Z25	X26	Y26	Z26	X27	Y27	Z27	X28	Y28	Z28	X29	Y29	Z29	X30	Y30	Z30	X31	Y31	Z31	X32	Y32	Z32	X33	Y33	Z33	X34	Y34	Z34	X35	Y35	Z35	X36	Y36	Z36	X37	Y37	Z37	X38	Y38	Z38	X39	Y39	Z39	X40	Y40	Z40	X41	Y41	Z41	X42	Y42	Z42	

398	  3.980000	732.192624	1023.902002	-221.728633	554.465547	1086.348877	-384.954747	551.996486	1086.696906	-300.821662	723.356919	919.876405	-152.903111	876.998169	859.844599	-176.913766	868.852774	738.080931	-182.460136	606.429284	883.110870	-522.767232	613.150434	751.995014	-503.820570	471.400779	669.067674	-487.540942	901.750137	538.661110	-253.670839	795.955100	499.191011	-201.611112	744.761949	411.097564	-262.769135	403.756926	441.899603	-432.722161	301.316111	421.177159	-486.174405	273.727444	283.786017	-425.725680	557.634217	399.356808	-276.954864	726.667964	238.594831	-283.407591	686.828764	232.558358	-196.871899	 96.041420	258.717688	-377.468672	218.498582	 70.590091	-409.295297	157.896671	 74.167539	-477.616191	767.284541	1511.991017	-506.682530	665.443510	1520.081826	-177.926769	773.624534	1483.989094	-299.694221	651.599981	1551.786685	-376.114004	568.711134	1448.588422	-107.005362	486.316859	1398.354124	-149.519423	490.607825	1367.049211	-74.620439	435.249633	1287.430842	-43.909384	411.160212	1277.193041	-121.337509	765.550047	1418.310533	-615.200339	703.890699	1336.490006	-634.105558	767.685234	1316.381187	-676.541380	789.131276	1240.222176	-720.652268	735.016975	1188.342931	-690.182568	452.821312	1207.676105	-31.995761	571.936960	1046.419767	-69.808596	506.920504	1022.211289	-56.121021	875.840982	1226.375014	-631.191741	915.887920	1273.897847	-486.866929	937.346432	1210.680460	-501.854914	721.010949	980.708579	-464.435668	
399	  3.990000	735.429946	1027.890467	-225.179996	558.183194	1091.700921	-388.336206	554.907692	1092.360164	-304.349802	724.650352	928.369996	-154.096237	876.253065	865.874364	-175.688422	869.053356	743.325464	-182.798761	606.012357	888.198968	-524.546898	607.807901	757.178144	-505.177923	463.648117	678.823535	-488.159688	919.882082	539.170400	-252.715757	819.492968	487.001693	-201.850176	780.410108	393.434128	-263.715622	388.578675	453.588177	-434.878006	285.614887	436.925285	-487.880970	253.542342	299.406900	-428.903110	596.229937	358.624128	-279.637852	782.994715	219.197361	-284.853553	743.541339	207.716804	-198.904157	 82.571357	288.352705	-379.058918	181.409507	 82.294923	-412.081497	117.402550	 93.246794	-476.116150	770.647406	1518.278058	-502.139073	664.213395	1524.387859	-176.705178	773.890182	1488.757303	-296.215514	653.111197	1555.625933	-374.312570	564.605378	1455.506796	-108.723524	481.965528	1409.330938	-150.938113	485.101985	1375.933445	-76.524387	426.855619	1297.360369	-48.127605	404.997420	1287.252020	-126.187260	771.472366	1425.410814	-611.348017	709.627644	1343.718931	-632.017639	774.320464	1323.883611	-673.500448	796.745961	1247.363267	-717.829700	743.370811	1194.803559	-687.715757	444.130065	1218.164238	-34.938353	565.999306	1057.437143	-67.274814	500.898843	1032.755290	-54.845487	880.555722	1238.458200	-625.662718	915.423264	1289.813630	-481.403778	939.953041	1227.187773	-494.410202	723.364618	983.780644	-465.633117	
400	  4.000000	737.529339	1030.658495	-227.610551	560.965926	1096.621983	-390.950027	556.815133	1097.202106	-307.107120	723.909409	932.750218	-155.135957	873.788110	868.868298	-174.383878	867.578820	745.531015	-183.048017	605.936589	893.012962	-526.130155	605.350025	762.074449	-507.199639	460.174436	685.251361	-489.570231	935.196917	537.658138	-251.720452	841.858270	473.086197	-201.670832	815.528365	374.983713	-263.538962	377.199108	462.756970	-437.029220	273.472393	451.442648	-489.345757	232.716291	316.034141	-429.606313	637.444717	317.848816	-282.564967	839.398894	201.759526	-285.380509	800.626377	185.053823	-200.172886	 66.674447	319.142618	-378.829134	145.507961	102.200663	-413.333691	 79.658075	119.128368	-473.936658	774.040368	1523.683291	-497.794855	664.021859	1527.794018	-175.095229	774.906391	1492.192891	-292.845665	654.772863	1558.860280	-372.281807	562.008405	1461.672001	-109.932227	479.130170	1418.872445	-152.790929	480.645498	1383.483828	-78.887678	419.978928	1305.977262	-52.374808	400.792316	1295.393587	-130.982858	776.801797	1431.593824	-607.540230	714.610267	1350.054162	-630.599640	780.255741	1330.502186	-670.915385	803.231083	1253.727805	-715.356125	750.178657	1200.888756	-685.682467	437.117465	1227.068393	-37.807876	561.781506	1066.879399	-64.407170	496.572225	1041.544129	-53.573543	884.079730	1248.436712	-620.790365	914.180197	1301.463367	-476.250165	941.347577	1239.591535	-487.915755	725.072662	986.581180	-466.303101	
401	  4.010000	738.404565	1032.178960	-228.556518	562.982372	1100.776791	-392.398682	557.993319	1100.871759	-308.488158	721.794421	932.977827	-155.583544	869.356105	868.703812	-173.029376	864.778150	744.629358	-183.299123	606.666463	897.373188	-527.129261	605.678904	766.143501	-509.253842	460.294538	688.925646	-492.079363	947.208674	533.399883	-250.016093	862.374936	457.191924	-200.909982	849.519563	356.043221	-262.671343	368.551011	469.954841	-439.172572	263.944895	465.462579	-490.565194	212.761488	334.605304	-428.675462	680.712758	277.056045	-285.742953	895.253485	186.628974	-284.606423	857.302067	164.744026	-200.638106	 48.922495	351.628319	-377.618183	110.798004	129.071113	-411.223646	 45.461499	150.157236	-470.749172	777.568727	1528.148462	-493.552875	664.551834	1530.415344	-173.144328	776.455040	1494.606037	-289.690727	656.604951	1561.745440	-370.111857	561.155137	1466.997459	-110.194717	477.951677	1426.851857	-154.784895	477.488176	1389.331671	-81.752351	415.026054	1312.743146	-56.285005	398.652479	1301.409541	-135.206038	781.633661	1436.829670	-603.884902	719.049475	1355.730177	-629.569881	785.386018	1336.163528	-668.524838	808.315847	1259.295664	-713.089198	754.952156	1206.680686	-684.052751	432.205457	1233.910795	-40.284172	559.280888	1073.974865	-62.047806	493.998997	1048.093587	-52.667405	886.685286	1255.520006	-616.694468	912.770259	1308.063705	-471.241540	941.624387	1246.754759	-482.305869	726.629511	989.536678	-466.823760	
402	  4.020000	738.368939	1032.388096	-228.450530	564.484365	1103.810270	-392.592930	558.813669	1103.273159	-308.533275	719.463273	930.441276	-155.323163	862.817783	865.275351	-171.606257	860.470620	740.476979	-183.550848	608.519052	900.916953	-527.511172	608.111745	769.024895	-510.585613	463.179847	690.834832	-495.462046	955.552255	525.955112	-247.340787	880.736042	439.226492	-199.680222	881.875350	337.307211	-261.829236	361.983780	475.966242	-441.150855	256.824002	479.432534	-491.503085	196.154748	355.666655	-427.243819	725.473086	237.046828	-288.660572	949.464125	174.686126	-282.842087	912.912086	147.257119	-200.668418	 32.549649	386.309503	-376.486772	 77.842128	160.273255	-405.642693	 14.653914	184.523199	-466.061936	781.050430	1531.717044	-489.525991	665.586980	1532.225657	-170.986407	778.153066	1496.248436	-286.877367	658.615353	1564.538008	-367.797754	561.583789	1470.978706	-109.322187	478.366509	1432.673831	-156.559594	475.871171	1393.103023	-84.654074	412.213012	1316.865519	-59.487114	398.524783	1305.061807	-138.344145	785.876239	1441.268230	-600.522147	722.721292	1361.069468	-628.537126	789.410029	1341.081003	-666.203473	811.747073	1264.083012	-710.870659	757.390538	1212.182643	-682.941151	429.619415	1238.219853	-42.059070	558.669149	1078.402395	-60.209241	493.356559	1052.050097	-52.276040	888.354889	1259.108121	-613.363587	911.795135	1309.222542	-466.322231	940.852812	1247.994877	-477.674047	728.373984	992.697947	-467.593083	
403	  4.030000	737.838100	1031.770401	-227.910028	565.664913	1105.499793	-391.951982	559.549666	1104.402099	-307.877183	717.840471	926.967497	-154.784572	854.928141	858.624369	-170.105054	853.953542	733.007041	-183.649467	611.561811	903.220509	-527.674577	611.938225	770.595301	-510.967507	468.079311	691.529766	-498.940259	960.054046	515.695268	-244.211419	896.730139	419.949459	-198.238618	911.817735	319.571695	-261.028853	357.436021	481.269663	-442.715884	252.589476	493.225485	-492.240217	184.410100	378.722520	-426.069827	770.610067	199.583044	-290.487136	1000.333987	167.052377	-280.998515	966.454108	133.420516	-200.622697	 20.984210	422.983590	-375.758785	 47.472289	193.814562	-398.460097	-13.315658	221.367453	-459.955526	784.104471	1534.484784	-485.965292	667.017643	1533.151698	-168.674064	779.685874	1497.134120	-284.422057	660.693446	1567.311017	-365.235509	562.447451	1472.987792	-107.445594	479.962376	1435.448141	-157.729282	475.831162	1394.495045	-86.710624	411.546972	1317.871337	-61.514393	400.184191	1306.071239	-140.088035	789.223618	1445.041723	-597.484493	725.105777	1366.228670	-627.250517	792.016460	1345.492634	-664.005683	813.353780	1268.011308	-708.614706	757.423514	1217.278251	-682.376982	429.328846	1239.664702	-42.901461	560.106281	1080.232276	-58.282280	494.822338	1053.295045	-52.208623	888.785305	1259.005296	-610.647039	911.610962	1304.976625	-461.629576	939.052635	1243.322000	-474.295701	730.420064	995.679772	-468.592785	
